<svg width="31" height="31" viewBox="0 0 31 31" fill="none" xmlns="http://www.w3.org/2000/svg">
<path d="M15.5 1C23.508 1.00007 29.9999 7.49211 30 15.5C30 23.508 23.5082 29.9999 15.5 30C7.49203 30 1 23.508 1 15.5C1.00013 7.49206 7.49215 1 15.5 1ZM15.5 12.2949L10.8047 7.59961L7.59961 10.8047L12.2949 15.5L7.59961 20.1953L10.0977 22.6934L10.8047 23.4014L11.5117 22.6934L15.5 18.7051L19.4883 22.6934L20.1953 23.4014L20.9023 22.6934L23.4004 20.1953L18.7051 15.5L23.4004 10.8047L20.1953 7.59961L15.5 12.2949Z" fill="#9E171A" stroke="#9E171A" stroke-width="2"/>
</svg>
